<svg width="408" height="468" viewBox="0 0 408 468" fill="none" xmlns="http://www.w3.org/2000/svg">
<path d="M167.832 418.934V418.845V418.668L167.743 418.401V418.224V418.046V417.78V417.602V417.425V417.336V417.158V417.07V416.981L167.832 416.803V416.715C168.808 413.43 168.897 410.057 168.098 406.95L166.855 401.889V401.801L166.767 401.623V401.534V401.445V401.268V401.179C166.678 399.226 166.234 397.273 165.257 395.32V395.231V395.143V395.054V394.965V394.876V394.788V394.699L165.169 394.61V394.521L165.08 394.433V394.344V394.255L164.991 394.166V394.078C163.926 392.213 162.417 390.349 160.464 388.662C155.847 384.49 149.278 381.649 142.088 380.407C141.111 380.229 140.223 380.14 139.247 380.052C132.5 379.43 126.02 380.406 120.96 382.892C115.456 385.555 111.905 389.728 111.106 394.699C111.017 395.054 111.017 395.498 110.928 395.853V396.031V396.386L110.84 397.007V397.362L110.662 397.628L110.218 398.072L110.041 398.338L109.863 398.516L109.774 398.605L109.686 398.782L109.597 398.871L109.508 398.96L109.33 399.049L109.242 399.138L105.691 401.623L105.247 401.889L104.448 402.422L104.004 402.689L103.56 402.511L102.672 402.156L102.229 401.978L101.962 401.889C101.696 401.801 101.341 401.623 100.986 401.534C98.3226 400.558 95.4818 399.759 92.7299 399.315H92.6411C91.8422 399.226 91.0432 399.138 90.1555 399.049C88.6464 398.871 87.3147 398.871 86.3382 398.782H85.273C77.7273 398.782 70.5367 400.913 64.944 404.641C59.0849 408.636 55.2677 414.229 54.2025 420.532C53.7586 423.372 54.0249 426.568 55.1789 429.942V430.031V430.119V430.208V430.297V430.386V430.474V430.563V430.652V430.741V430.829V430.918V431.007V431.096C56.4218 447.874 64.7664 459.592 77.9048 463.054C82.0771 464.208 86.3382 464.918 90.5106 465.362C97.1685 465.983 103.826 465.717 110.751 464.474C125.576 461.9 141.377 454.976 157.8 443.879C168.009 436.511 169.607 425.947 167.832 418.934Z" fill="white"/>
<path d="M56.8657 399.049C63.0798 394.522 70.0929 394.876 70.2704 393.989C70.803 393.101 62.5471 390.616 54.8239 396.031C47.1006 401.357 46.4793 409.968 47.5446 409.791C48.3435 409.968 50.4741 403.31 56.8657 399.049Z" fill="#111111"/>
<path d="M169.075 419.378C168.986 419.112 168.897 418.934 168.808 418.756C170.051 415.028 170.317 411.122 169.341 407.482L168.009 402.245C168.009 399.937 167.388 397.629 166.234 395.409L166.145 394.877L166.056 395.054C164.902 392.746 163.127 390.615 160.908 388.662C156.114 384.401 149.278 381.294 141.821 380.14C140.845 379.963 139.78 379.874 138.803 379.785C131.879 379.164 125.132 380.14 119.894 382.715C113.947 385.556 110.218 390.083 109.33 395.498C109.242 395.942 109.242 396.386 109.153 396.83V396.919V397.007C109.153 397.362 109.153 397.717 109.153 398.072L108.798 398.339L103.827 401.801L103.471 402.067C102.761 401.712 101.962 401.357 101.163 401.091C98.4114 400.025 95.5707 399.315 92.6412 398.782C91.8422 398.694 90.9545 398.516 90.0667 398.427C88.5576 398.25 87.1373 398.25 86.1608 398.161C85.8944 398.161 85.6281 398.161 85.4505 398.161H85.3618H85.273C77.461 398.161 69.9153 400.381 64.0563 404.287C57.8422 408.459 53.8474 414.407 52.7821 421.065C52.2495 424.26 52.6933 427.811 53.8474 431.451C53.8474 431.54 53.8474 431.54 53.8474 431.628C55.179 449.117 63.79 461.19 77.5498 464.918C81.8109 466.072 86.0719 466.871 90.333 467.226C97.1686 467.848 103.915 467.582 110.928 466.339C125.931 463.764 141.91 456.751 158.511 445.477C169.252 438.02 170.939 426.746 169.075 419.378ZM56.9544 421.686C58.8187 410.323 70.803 402.6 85.0955 402.511C86.1607 402.6 87.6699 402.6 89.5341 402.777C90.2443 402.866 91.0432 402.955 91.8422 403.044C94.5054 403.488 97.0798 404.198 99.5655 405.085C101.252 405.796 103.028 406.594 104.803 407.66C115.367 413.874 118.385 422.574 119.362 422.751C119.451 422.751 119.451 422.84 119.451 422.84C120.338 422.929 118.829 413.342 106.401 405.352L111.372 401.889C112.97 406.506 117.32 408.459 118.829 408.547C119.184 408.547 119.362 408.548 119.362 408.37C119.717 407.838 115.012 405.263 113.858 400.114C113.68 399.138 113.592 398.161 113.592 397.096C113.592 396.741 113.68 396.474 113.68 396.119C115.012 388.041 125.842 382.892 138.448 384.046C139.336 384.135 140.223 384.224 141.111 384.401C154.871 386.621 164.814 395.498 163.393 404.198C163.393 404.286 163.304 404.464 163.304 404.553C162.861 406.506 162.062 408.636 160.286 410.501C155.315 416.271 147.503 416.448 147.414 417.07C147.148 417.247 147.68 417.425 148.746 417.514C151.498 417.78 157.712 417.159 162.683 412.01C163.748 410.856 164.458 409.613 164.991 408.459C166.855 415.916 162.505 424.438 154.427 429.676C124.688 449.472 106.579 453.378 92.2861 452.046C86.7821 451.514 81.8108 450.182 77.0171 448.673C64.145 444.678 55.4453 430.83 56.9544 421.686ZM155.848 441.66C114.124 469.89 87.3148 462.788 78.4375 460.48C73.9989 459.326 64.7664 455.42 60.3278 442.903C64.3226 447.43 69.5602 451.159 75.7743 453.112C80.3017 454.532 85.7169 456.041 91.931 456.663C110.307 458.349 130.281 451.247 156.913 433.582C160.286 431.362 163.038 428.699 165.169 425.681C165.08 430.918 162.594 437.133 155.848 441.66Z" fill="#111111"/>
<path d="M68.0511 421.42C67.6073 422.929 67.4297 424.527 67.4297 426.214C67.4297 426.48 67.6073 426.746 67.9624 426.746C68.2287 426.746 68.495 426.568 68.5837 426.302C69.1164 424.704 69.649 423.195 70.3592 421.863C71.8683 422.307 73.2887 422.929 74.5315 423.639C73.3775 425.947 72.5786 428.433 72.2235 431.185C72.2235 431.451 72.401 431.717 72.6673 431.806H72.7561C73.0224 431.806 73.2887 431.717 73.3775 431.451C74.354 429.143 75.508 426.924 76.7509 425.059C78.7926 426.657 80.213 428.255 80.9232 429.143C81.012 429.232 81.1895 429.32 81.3671 429.409C81.4558 429.409 81.5446 429.409 81.6334 429.321C81.8109 429.232 81.9885 428.965 81.8997 428.699C81.4558 427.012 80.0355 424.882 78.0825 423.018C78.7926 421.952 79.5916 420.976 80.3018 420.088C81.7222 421.331 82.7875 422.574 83.3201 423.284C83.4089 423.461 83.5864 423.462 83.764 423.55C83.8527 423.55 83.9415 423.55 84.0303 423.462C84.2966 423.373 84.3853 423.106 84.2966 422.84C83.9415 421.508 83.0538 419.91 81.7222 418.401C83.5864 416.271 85.1843 414.851 86.072 414.14C86.3383 413.963 86.3384 413.608 86.2496 413.342C86.072 413.075 85.8057 412.986 85.5394 413.075C83.6752 413.785 81.7222 414.939 79.9467 416.537C78.7927 415.561 77.5498 414.762 76.1294 414.14C75.9519 414.052 75.7744 413.963 75.5968 413.963C76.7509 412.631 77.8161 411.743 78.3488 411.211C78.5263 411.033 78.6151 410.767 78.4376 410.501C78.26 410.234 77.9937 410.146 77.7274 410.234C76.0407 410.767 74.354 411.832 72.8449 413.342C70.8919 413.164 68.5838 413.43 66.2757 414.85C66.0094 415.028 65.9206 415.295 66.0094 415.561C66.0981 415.827 66.3645 415.916 66.6308 415.916C68.1399 415.65 69.4715 415.649 70.8031 415.738C70.0929 416.715 69.4715 417.691 69.0276 418.845C67.2522 418.756 65.2104 419.112 63.1686 420.266C62.9023 420.443 62.8135 420.709 62.9023 420.976C62.9911 421.242 63.2574 421.42 63.5237 421.331C65.0329 421.242 66.542 421.242 68.0511 421.42ZM73.6438 416.449C75.3305 416.981 76.7509 417.691 78.0825 418.49C77.2835 419.378 76.5733 420.354 75.8631 421.42C75.0642 420.887 74.1765 420.355 73.2888 420C72.8449 419.822 72.3122 419.644 71.6908 419.467C72.3122 418.313 73.0224 417.336 73.6438 416.449Z" fill="#111111"/>
<path d="M169.164 322.172C113.325 326.788 124.688 365.404 138.448 394.344" stroke="#111111" stroke-width="20" stroke-miterlimit="10" stroke-linecap="round"/>
<path d="M49.5864 157.231C47.1895 231.978 89.0016 283.555 125.132 297.759" stroke="#111111" stroke-width="20" stroke-miterlimit="10" stroke-linecap="round"/>
<path d="M298.772 187.325C299.216 186.083 217.545 143.649 111.55 134.683C109.863 134.505 94.4167 325.278 94.4167 325.278C136.584 354.396 183.101 366.025 234.145 359.278C234.145 359.278 288.386 216.887 298.772 187.325Z" fill="white"/>
<path d="M298.772 187.325C299.216 186.083 217.545 143.649 111.55 134.683C109.863 134.505 94.4167 325.278 94.4167 325.278C136.584 354.396 183.101 366.025 234.145 359.278C234.145 359.278 288.386 216.887 298.772 187.325Z" stroke="white" stroke-width="17.9059" stroke-miterlimit="10"/>
<path d="M298.772 187.325C299.216 186.083 217.545 143.649 111.55 134.683C109.863 134.505 94.4167 325.278 94.4167 325.278C136.584 354.396 183.101 366.025 234.145 359.278C234.145 359.278 288.386 216.887 298.772 187.325Z" stroke="#111111" stroke-width="7.6261" stroke-miterlimit="10"/>
<path d="M317.326 153.414C306.85 197.712 265.038 165.221 208.934 149.686C152.829 134.15 99.2104 143.56 114.124 97.0431C117.054 88.0771 164.192 93.1373 220.297 108.761C276.49 124.297 319.545 144.27 317.326 153.414Z" fill="#F9A4CF" stroke="#111111" stroke-width="8.0554" stroke-miterlimit="10"/>
<path d="M299.66 141.43C242.401 137.612 186.474 122.077 135.43 95.8893C141.2 88.5211 147.148 80.1764 153.184 70.944C203.252 75.2051 252.166 88.6986 297.263 110.892C297.795 121.988 298.594 132.197 299.66 141.43Z" fill="#F9A4CF"/>
<path d="M299.66 141.43C242.401 137.612 186.474 122.077 135.43 95.8893C141.2 88.5211 147.148 80.1764 153.184 70.944C203.252 75.2051 252.166 88.6986 297.263 110.892C297.795 121.988 298.594 132.197 299.66 141.43Z" stroke="#111111" stroke-width="7" stroke-miterlimit="10" stroke-linejoin="round"/>
<path d="M282.882 113.999C281.816 113.555 279.153 113.022 273.294 111.957C262.73 110.004 245.153 106.72 223.226 100.683C222.96 100.594 222.782 100.505 222.516 100.505C200.323 94.4689 182.568 87.9885 172.004 84.0825C166.145 81.9519 163.482 80.9753 162.417 80.8866C161.085 80.709 160.73 81.5968 160.73 81.8631C160.464 82.9284 160.819 83.3723 165.257 85.6804C167.388 86.7457 171.205 88.5211 177.153 90.9179C186.03 94.4689 200.678 99.8841 220.474 105.388C220.918 105.477 221.273 105.654 221.717 105.743C242.046 111.336 257.137 114.176 266.192 115.508C283.148 118.082 283.592 116.751 283.858 115.863C284.036 115.419 284.124 114.532 282.882 113.999Z" fill="#111111"/>
<path d="M305.164 202.861C232.725 201.44 161.884 181.821 99.1216 145.691C103.56 129.712 108.354 113.91 113.325 98.1086C176.177 132.464 246.041 151.816 317.592 154.746C313.686 170.902 309.602 186.882 305.164 202.861Z" fill="#F9A4CF"/>
<path d="M305.164 202.861C232.725 201.44 161.884 181.821 99.1216 145.691C103.56 129.712 108.354 113.91 113.325 98.1086C176.177 132.464 246.041 151.816 317.592 154.746C313.686 170.902 309.602 186.882 305.164 202.861Z" stroke="#111111" stroke-width="7" stroke-miterlimit="10" stroke-linejoin="round"/>
<path d="M29.1686 123.764C29.3462 123.498 29.5237 123.231 29.7013 122.965C32.8971 118.793 38.2235 116.928 42.1295 116.573C48.2548 116.041 55.8005 121.012 61.0381 128.824C64.4115 133.884 70.0042 145.247 66.9859 151.638L65.6543 154.479C67.6073 156.787 69.1165 158.652 69.8266 159.806C72.8449 164.333 77.8162 171.967 70.8031 178.181C69.7378 179.069 68.2287 180.046 66.187 181.022L66.7196 183.242C69.1165 187.236 68.3175 190.166 67.2522 191.941C63.7901 197.534 52.4272 200.109 43.9937 199.399C38.6674 198.866 31.743 196.558 28.9911 192.474C28.1033 191.054 27.7482 189.544 27.9258 187.947L28.1921 185.816C27.0381 185.461 25.9728 185.017 24.9075 184.484C20.824 182.531 17.4506 179.602 15.2313 176.229C12.8344 172.589 11.9467 168.861 12.8344 166.02L13.0119 165.398C9.81612 164.599 7.33048 162.291 5.91011 160.161C5.82134 160.072 5.73255 159.895 5.73255 159.806C-0.481552 149.508 1.38267 140.098 10.8814 134.062L14.2548 131.931C14.4323 131.398 14.6986 130.866 15.0537 130.333C17.0955 127.137 22.2443 124.74 26.0616 124.119L29.1686 123.764Z" fill="white"/>
<path d="M25.4401 122.521C21.2678 123.143 15.4976 125.806 13.1895 129.534C12.9231 129.978 12.6568 130.422 12.4793 130.866L9.54974 132.73C5.7325 135.127 3.15808 137.968 1.56017 141.341C-0.30406 145.336 -1.45808 151.994 3.8683 160.871C3.95707 160.96 4.04584 161.137 4.13461 161.315C5.4662 163.357 7.77429 165.576 10.615 166.73C10.0824 169.926 11.1477 173.654 13.5445 177.383C15.9414 181.022 19.6699 184.129 24.0198 186.26C24.73 186.615 25.4401 186.881 26.1503 187.148C25.7064 189.456 26.1503 191.587 27.3931 193.54C30.8553 198.777 39.555 200.907 43.6386 201.263C51.1843 201.973 64.4114 199.842 68.5838 193.007C69.9153 190.788 70.9806 187.148 68.0511 182.354C68.0511 182.265 67.9624 182.265 67.8736 182.176C69.4715 181.289 70.8919 180.401 71.7796 179.602C80.0355 172.323 73.9989 163.268 71.1582 158.918C70.2705 157.675 69.1164 155.988 67.6073 154.302L68.4062 152.526C71.6908 145.513 66.0981 133.795 62.2809 128.025C56.777 119.68 48.5211 114.443 41.7744 114.975C39.6438 115.153 32.542 116.129 28.1033 121.988C28.0145 122.077 28.0145 122.077 27.9258 122.166L25.4401 122.521ZM64.4115 150.573C57.3984 143.383 53.8475 140.72 51.8944 139.743C51.5394 138.145 50.8292 136.636 49.9414 135.304C47.1895 131.043 42.7509 128.469 42.6621 128.469C42.307 128.38 41.8631 128.558 41.6856 128.913C41.508 129.179 41.508 129.534 41.6856 129.801L41.7744 129.889C42.5733 130.688 43.2835 131.665 43.9049 132.641C44.7038 133.884 45.414 135.216 45.9466 136.547C45.1477 136.37 44.3488 136.281 43.6386 136.281C40.1764 136.547 35.649 138.589 33.3409 142.673C32.3644 140.986 31.4767 138.944 30.5889 136.725C28.7247 132.02 29.0798 127.847 31.5655 124.563C34.2287 121.101 38.7561 119.503 42.0407 119.236C47.1895 118.793 53.9362 123.32 58.4637 130.244C62.7248 136.725 66.4532 146.223 64.4115 150.573ZM30.3226 188.302C37.7796 189.9 45.7691 189.012 51.7169 187.68C56.0668 186.793 60.3279 185.373 63.8788 183.863C63.9676 184.13 64.0563 184.307 64.1451 184.573C65.5655 186.882 65.743 188.835 64.7665 190.521C61.9258 195.049 51.5394 197.357 43.9937 196.647C39.1999 196.203 33.0746 194.072 31.0328 190.876C30.4114 190.166 30.2339 189.279 30.3226 188.302ZM15.0537 166.908C20.025 166.996 23.6647 163.179 25.1738 161.492C25.7952 161.67 26.4166 161.847 27.038 161.847C29.0798 162.025 31.1216 161.581 32.8971 160.427C33.0746 160.338 33.2522 160.25 33.3409 160.161C33.696 160.782 34.0511 161.493 34.495 162.114C35.2939 163.357 36.2704 164.511 37.3357 165.576C40.4428 168.772 43.5498 169.926 46.1242 170.547C46.4793 170.636 46.9232 170.459 47.1007 170.104C47.2783 169.837 47.1895 169.482 47.0119 169.216C47.0119 169.127 46.9231 169.127 46.8344 169.038C44.7038 167.174 42.4845 165.043 40.1764 162.735C39.2887 161.847 38.4897 160.871 37.8683 159.894C34.2286 154.302 34.9388 148.532 36.8918 145.069C38.401 142.229 41.5968 140.276 43.9937 140.631C50.2078 141.43 63.8788 156.166 67.4297 161.404C70.8919 166.73 73.8214 171.879 68.8501 176.318C63.7901 180.756 40.0877 189.101 25.884 182.265C22.5106 180.667 19.3148 178.093 17.273 174.986C15.2312 171.968 14.521 168.949 15.0537 166.908ZM11.9466 136.459C10.8813 140.72 13.1894 148.265 17.0954 154.213C18.427 156.255 19.9362 158.03 21.5341 159.539C15.2312 166.73 9.54974 161.581 7.77428 158.829C7.68551 158.74 7.68555 158.652 7.59678 158.563C-0.481563 145.069 8.75079 138.5 11.9466 136.459ZM26.0615 126.96C24.9963 130.333 25.2626 138.145 30.5889 146.224C30.944 146.756 31.2991 147.2 31.6542 147.733C31.0328 150.573 31.1216 153.592 31.9205 156.432C31.8318 156.521 27.5707 159.273 25.4401 157.587C23.4871 156.077 21.8892 154.213 20.4689 152.082C15.8527 145.069 14.4323 135.837 16.9179 131.931C18.4271 129.534 22.8657 127.404 26.0615 126.96Z" fill="#111111"/>
<path d="M47.8998 103.435C56.3332 104.323 60.328 111.602 59.5291 111.868C58.9077 112.401 54.3803 107.607 47.5447 106.986C40.7092 106.098 35.294 109.738 34.7614 109.116C33.9625 108.672 39.4664 102.547 47.8998 103.435Z" fill="#111111"/>
<path d="M357.273 197.534C334.903 261.806 282.527 285.064 243.822 285.863" stroke="#111111" stroke-width="20" stroke-miterlimit="10" stroke-linecap="round"/>
<path d="M383.816 159.007C383.728 158.74 383.55 158.474 383.461 158.119C381.153 153.414 376.359 150.484 372.542 149.419C366.594 147.732 358.25 151.017 351.592 157.675C347.242 162.025 339.607 171.968 341.205 178.803L341.916 181.821C339.519 183.686 337.654 185.283 336.767 186.171C332.949 189.988 326.469 196.469 332.239 204.015C333.038 205.08 334.459 206.412 336.145 207.743L335.169 209.874C331.973 213.247 332.239 216.354 332.95 218.307C335.258 224.521 345.822 229.315 354.344 230.203C359.67 230.735 366.95 229.848 370.412 226.385C371.566 225.231 372.276 223.811 372.365 222.213L372.542 220.082C373.696 219.994 374.85 219.727 376.004 219.461C380.354 218.396 384.349 216.176 387.19 213.336C390.208 210.229 391.895 206.767 391.628 203.837L391.54 203.216C394.824 203.127 397.754 201.262 399.529 199.487C399.618 199.398 399.707 199.31 399.795 199.221C407.963 190.344 407.963 180.756 399.884 172.944L397.044 170.192C396.955 169.571 396.777 169.038 396.6 168.505C395.268 165.043 390.652 161.581 387.012 160.25L383.816 159.007Z" fill="white"/>
<path d="M385.237 157.675C385.237 157.586 385.148 157.497 385.148 157.497C381.952 150.84 375.117 148.443 373.164 147.821C366.683 145.957 357.54 149.419 350.527 156.521C345.644 161.403 337.832 171.79 339.696 179.336L340.14 181.288C338.365 182.709 336.856 184.041 335.702 185.106C331.973 188.834 324.339 196.557 330.997 205.257C331.796 206.322 332.95 207.388 334.37 208.542C334.281 208.631 334.281 208.631 334.193 208.72C330.375 212.803 330.642 216.62 331.529 219.017C334.281 226.563 346.798 231.268 354.344 232.067C358.427 232.511 367.394 232.156 371.832 227.717C373.519 226.03 374.318 223.988 374.318 221.68C375.117 221.591 375.827 221.414 376.626 221.236C381.242 220.082 385.503 217.685 388.61 214.578C391.717 211.471 393.493 208.009 393.582 204.725C396.6 204.103 399.263 202.417 401.038 200.641C401.127 200.552 401.305 200.375 401.394 200.286C408.407 192.652 408.584 185.905 407.519 181.644C406.631 178.004 404.589 174.719 401.394 171.612L398.908 169.216C398.819 168.683 398.642 168.239 398.464 167.795C396.866 163.712 391.806 159.894 387.811 158.474L385.237 157.675ZM353.634 159.717C359.493 153.858 367.039 150.751 371.921 152.171C375.117 153.059 379.289 155.544 381.153 159.45C382.929 163.179 382.396 167.351 379.733 171.612C378.401 173.654 377.159 175.341 375.827 176.85C374.318 172.411 370.412 169.571 367.039 168.594C366.328 168.417 365.529 168.328 364.73 168.328C365.529 167.085 366.506 165.931 367.571 164.865C368.37 163.978 369.347 163.268 370.234 162.558L370.323 162.469C370.589 162.203 370.678 161.847 370.501 161.581C370.412 161.226 370.057 160.96 369.613 160.96C369.524 160.96 364.73 162.646 361.179 166.197C360.025 167.351 359.049 168.683 358.339 170.192C356.208 170.724 352.302 172.678 343.958 178.27C342.803 173.565 348.307 165.043 353.634 159.717ZM368.636 224.61C365.973 227.273 359.493 228.161 354.788 227.628C347.242 226.829 337.477 222.479 335.613 217.419C334.903 215.555 335.524 213.691 337.388 211.649C337.566 211.471 337.655 211.294 337.832 211.027C341.028 213.247 345.023 215.378 349.018 217.153C354.61 219.639 362.245 222.124 369.879 221.947C369.79 223.101 369.347 223.9 368.636 224.61ZM385.414 211.471C382.751 214.134 379.112 215.999 375.472 216.887C360.203 220.793 338.542 207.832 334.548 202.506C330.553 197.179 334.37 192.652 338.897 188.213C343.336 183.686 359.67 171.967 365.973 172.5C368.37 172.678 371.122 175.163 372.099 178.27C373.253 182.088 372.897 187.947 368.192 192.652C367.394 193.539 366.417 194.25 365.352 194.96C362.6 196.824 360.025 198.422 357.54 199.842C357.451 199.842 357.362 199.931 357.362 200.02C357.096 200.286 357.007 200.552 357.096 200.907C357.185 201.262 357.629 201.529 357.984 201.529C360.647 201.351 363.931 200.908 367.571 198.422C368.814 197.534 369.968 196.558 371.033 195.581C371.566 195.048 372.01 194.516 372.542 193.894C372.631 193.983 372.809 194.161 372.898 194.249C374.495 195.67 376.36 196.557 378.401 196.824C379.023 196.913 379.644 196.913 380.266 196.824C381.42 198.777 384.172 203.216 389.054 204.103C389.232 206.234 387.9 208.986 385.414 211.471ZM398.02 197.445C397.931 197.534 397.843 197.623 397.843 197.623C395.535 199.931 388.965 203.837 384.172 195.581C386.036 194.516 387.9 193.007 389.587 191.231C394.558 186.171 398.375 179.247 398.198 174.897C400.861 177.471 408.584 185.816 398.02 197.445ZM394.203 169.482C395.89 173.832 392.694 182.62 386.746 188.568C384.971 190.343 383.018 191.853 380.798 192.918C378.401 194.072 374.762 190.61 374.673 190.432C376.005 187.769 376.715 184.928 376.715 181.999C377.159 181.555 377.602 181.2 378.046 180.756C384.882 173.921 386.657 166.286 386.302 162.735C389.232 163.8 393.138 166.819 394.203 169.482Z" fill="#111111"/>
<path d="M369.524 135.393C361.091 134.594 355.675 140.897 356.474 141.341C357.007 141.962 362.333 138.234 369.169 138.944C376.093 139.388 380.621 144.093 381.242 143.56C382.13 143.294 377.957 136.103 369.524 135.393Z" fill="#111111"/>
<path d="M234.767 404.908C212.485 394.522 198.991 378.01 177.597 346.939" stroke="#111111" stroke-width="20" stroke-miterlimit="10" stroke-linecap="round"/>
<path d="M220.741 447.164C220.741 447.075 220.652 447.075 220.652 446.986C220.652 446.986 220.652 446.986 220.652 446.898C220.652 446.898 220.652 446.897 220.652 446.809C220.652 446.809 220.652 446.72 220.563 446.72C220.563 446.72 220.563 446.72 220.563 446.631C220.386 446.365 220.297 446.187 220.208 445.921C219.409 444.057 218.61 442.37 217.989 440.772C217.989 440.772 217.989 440.772 217.989 440.683C217.989 440.595 217.989 440.595 217.9 440.506V440.417V440.328C217.9 440.24 217.811 440.239 217.811 440.151C217.811 440.151 217.811 440.151 217.811 440.062C217.722 439.884 217.634 439.796 217.634 439.796C217.19 438.819 216.923 437.843 216.657 436.866V436.778V436.689C215.769 434.114 215.237 431.984 214.615 429.765C214.349 428.699 213.994 427.634 213.639 426.48V426.391C213.372 425.414 213.106 424.349 212.84 423.284C212.84 423.195 212.84 423.106 212.751 423.018C212.751 422.84 212.662 422.663 212.662 422.485C212.574 422.13 212.485 421.775 212.396 421.42C212.396 421.242 212.307 421.065 212.307 420.887C212.13 420.798 211.952 420.798 211.775 420.71C211.419 420.621 211.064 420.532 210.709 420.355C210.532 420.266 210.354 420.266 210.177 420.177C210.088 420.177 209.999 420.088 209.91 420.088C208.579 419.644 207.425 419.023 206.448 418.224C202.897 415.206 201.743 410.057 202.453 403.932C203.164 398.516 205.205 392.746 208.135 387.331C212.485 379.43 218.077 373.66 224.38 371.529C224.469 371.529 224.558 371.441 224.647 371.441C224.824 371.352 225.002 371.352 225.179 371.263C225.534 371.174 225.889 370.997 226.244 370.908C226.422 370.819 226.6 370.819 226.777 370.731C226.777 370.553 226.688 370.375 226.688 370.198C226.6 369.843 226.6 369.487 226.511 369.132C226.511 368.955 226.422 368.777 226.422 368.6C226.422 368.511 226.422 368.422 226.333 368.333C226.245 367.978 226.245 367.712 226.156 367.446C226.156 367.357 226.156 367.357 226.156 367.268C226.156 366.913 226.067 366.558 226.067 366.203C225.446 359.545 224.025 351.112 228.553 341.79C233.435 331.582 240.271 324.835 251.012 321.018C258.38 318.443 267.702 317.289 278.798 318.266C279.508 318.354 280.307 318.532 281.017 318.798C281.017 318.798 281.017 318.798 281.106 318.798H281.195C281.195 318.798 281.195 318.798 281.284 318.798C281.284 318.798 281.284 318.798 281.373 318.798H281.461C281.461 318.798 281.461 318.798 281.55 318.798C286.61 319.864 292.025 324.036 295.754 330.25C299.926 337.263 301.169 345.608 299.038 352.976C296.819 360.966 291.315 378.365 282.793 395.232C274.537 412.276 263.174 428.788 256.25 438.73C250.302 447.43 242.224 452.579 234.856 453.201C232.991 453.378 231.127 453.201 229.44 452.846C226.156 452.047 223.315 450.271 221.362 447.696C221.007 447.874 220.829 447.519 220.741 447.164Z" fill="white"/>
<path d="M226.6 463.853C226.777 462.966 219.409 461.545 214.97 455.242C210.354 449.117 210.443 442.104 209.555 441.926C208.756 441.482 206.359 450.005 211.686 457.639C217.101 465.362 226.777 464.919 226.6 463.853Z" fill="#111111"/>
<path d="M201.122 404.553C200.323 411.122 201.566 416.715 205.472 420.177C206.626 421.242 208.046 421.952 209.644 422.485C210.088 422.574 210.532 422.751 210.976 422.751C211.242 424.349 211.597 425.947 212.13 427.722V427.811C212.485 428.965 212.751 430.031 213.017 431.096C213.639 433.404 214.171 435.535 214.97 438.109C215.237 439.174 215.592 440.239 216.036 441.393C216.124 441.571 216.213 441.748 216.302 441.837C216.923 443.435 217.633 445.3 218.61 447.43C218.699 447.696 218.876 448.052 219.054 448.318C219.231 448.851 219.409 449.294 219.764 449.738C226.333 458.882 243.91 459.326 257.137 440.683C263.352 431.717 273.383 417.514 281.639 401.534C290.072 385.644 296.73 367.978 300.459 354.662C305.519 337.085 292.647 320.307 281.905 318.532C280.929 318.177 279.952 317.999 279.153 317.911C267.879 316.934 258.291 318.088 250.657 320.84C239.472 324.835 232.459 331.759 227.399 342.234C222.782 351.733 224.203 360.344 224.824 367.091C224.824 367.446 224.913 367.801 224.913 368.156C224.913 368.244 224.913 368.333 224.913 368.422C225.09 369.31 225.179 370.198 225.446 371.085C218.432 372.683 211.863 378.986 206.981 387.775C203.962 393.101 201.832 399.049 201.122 404.553ZM294.422 338.328C299.571 352.443 291.049 362.386 290.96 360.522C290.339 359.811 295.665 350.401 291.581 339.482C287.587 328.741 278.976 325.633 279.064 324.657C278.088 323.769 288.741 324.835 294.422 338.328ZM245.774 412.454C245.419 411.832 252.166 408.548 258.114 412.01C264.15 415.472 263.707 423.373 262.908 423.461C262.198 423.728 261.132 417.869 256.25 415.117C251.456 412.01 245.863 413.164 245.774 412.454ZM237.519 430.119C240.626 426.391 244.887 424.527 247.195 426.214C249.592 427.9 248.97 432.605 245.686 436.6C242.401 440.594 237.785 442.193 235.654 440.328C233.435 438.464 234.412 433.937 237.519 430.119ZM230.949 413.164C245.775 399.138 251.634 368.777 250.302 357.681C249.592 344.187 251.634 334.067 258.025 327.942C260.422 325.634 263.263 324.213 266.459 323.681C259.179 330.694 255.007 342.412 255.717 359.367C256.96 371.085 250.657 401.446 236.009 415.561C228.02 423.817 222.694 432.161 220.119 438.908C219.853 438.198 219.586 437.576 219.409 436.955C217.722 429.675 221.806 422.307 230.949 413.164ZM210.798 389.994C215.681 381.383 222.072 375.347 228.02 374.636C229.085 377.921 230.328 380.673 231.66 382.981C220.918 388.13 219.054 394.965 219.675 395.231H219.764C220.652 395.231 223.759 389.195 232.902 385.2C232.902 385.2 232.902 385.2 232.991 385.2C235.299 388.574 237.519 390.26 238.14 390.349C238.229 390.349 238.318 390.26 238.318 390.172C238.584 389.284 232.37 382.448 229.973 371.44C229.707 370.464 229.529 369.488 229.44 368.511C228.908 361.587 227.31 353.331 231.837 344.01C235.832 335.843 241.336 328.563 252.699 324.657C253.942 324.213 255.184 323.858 256.516 323.592C255.895 324.036 255.273 324.568 254.652 325.19C247.372 332.203 245.064 343.122 245.774 357.681C247.106 368.245 241.602 397.007 227.754 410.146C223.315 414.673 218.61 420.088 216.213 426.125C213.195 415.383 215.059 408.281 214.349 407.571C214.349 407.482 214.26 407.393 214.26 407.393C213.639 407.305 211.686 411.3 212.218 418.668C211.686 418.668 211.153 418.579 210.709 418.401C209.821 418.135 208.934 417.691 208.224 417.159C202.808 412.365 204.939 400.647 210.798 389.994Z" fill="#111111"/>
<path d="M128.861 256.657C140.49 266.6 140.579 285.863 129.305 296.516C118.03 307.169 106.845 306.991 95.1269 297.049C83.4977 287.106 83.0538 270.328 94.3279 259.675C105.602 249.023 117.231 246.714 128.861 256.657Z" fill="white"/>
<path d="M117.942 250.531C119.54 250.265 118.918 249.644 117.498 249.555C108.265 249.111 98.7666 252.396 92.1086 259.231C81.1896 270.328 81.5447 287.283 92.9964 297.67C99.7431 303.795 108.798 306.458 117.675 305.748C119.184 305.66 118.829 304.594 117.586 304.417C117.586 304.417 117.587 304.417 117.498 304.417C111.55 303.44 101.519 300.954 96.9911 296.693C86.1608 286.662 85.8058 270.506 96.1922 259.675C100.808 254.793 111.372 251.685 117.942 250.531Z" fill="#111111"/>
<path d="M97.4351 270.062C98.0565 270.417 95.8372 275.566 97.7015 281.514C99.3882 287.55 104.093 290.924 103.738 291.545C103.56 292.344 96.9025 289.592 94.7719 282.224C92.5526 274.944 96.8137 269.44 97.4351 270.062Z" fill="#111111"/>
<path d="M135.785 298.025C135.075 297.67 134.365 297.315 133.654 296.96C133.477 296.871 133.299 296.782 133.211 296.694C132.767 296.427 132.5 295.895 132.678 295.54C133.921 293.764 135.164 292.078 136.495 290.302C136.761 289.947 140.934 285.686 137.472 283.644C137.117 283.467 132.855 273.524 132.855 273.435C132.678 272.903 133.033 272.636 133.566 272.903C148.835 281.425 177.686 288.083 202.986 281.691C203.164 281.602 203.252 281.78 203.164 281.958C181.592 309.033 148.568 305.393 135.785 298.025Z" fill="white"/>
<path d="M179.461 300.955C179.461 300.955 168.453 295.629 157.268 293.32C146.083 291.012 140.667 289.503 140.667 289.503C140.667 289.503 136.495 287.373 136.495 290.391C136.495 293.498 135.785 298.114 135.785 298.114L136.14 300.333L158.511 304.595L174.401 301.932L179.461 300.955Z" fill="#DD0C0C"/>
<path d="M205.205 280.093C204.85 279.649 204.229 279.561 203.519 279.738C152.119 288.882 125.31 262.782 123.712 264.291C122.558 263.936 123.002 267.754 131.79 273.613C132.323 273.968 132.678 274.589 132.678 275.122C132.589 281.336 132.5 287.639 132.412 293.853C132.412 294.563 131.701 294.918 130.902 294.652C125.487 292.965 123.712 293.409 124.422 294.119C125.31 296.694 146.26 306.902 156.114 306.547C174.934 307.435 191.445 300.333 204.939 281.691C205.472 281.07 205.56 280.448 205.205 280.093ZM140.401 298.292C139.78 298.025 139.158 297.759 138.537 297.493C138.359 297.404 138.271 297.315 138.093 297.315C137.649 297.138 137.472 296.605 137.649 296.338C138.803 294.829 143.863 293.232 148.479 293.498C161.618 294.475 167.388 297.138 174.312 301.843C179.727 305.482 181.858 290.923 180.97 290.923C179.905 290.036 167.211 295.007 152.119 290.302C148.302 289.148 144.84 287.639 141.821 285.952C141.466 285.775 141.289 285.508 141.111 285.153C140.046 282.579 138.892 279.915 137.827 277.252C137.649 276.808 138.004 276.542 138.448 276.72C151.942 283.289 175.2 288.882 197.216 284.532C197.393 284.532 197.482 284.62 197.393 284.798C178.84 307.169 151.675 303.973 140.401 298.292Z" fill="#111111"/>
<path d="M224.025 282.934C231.216 298.114 222.161 317.644 205.738 323.592C189.315 329.54 177.952 324.48 170.761 309.388C163.571 294.208 171.117 277.075 187.54 271.038C203.963 265.002 216.835 267.754 224.025 282.934Z" fill="white"/>
<path d="M215.769 271.926C217.456 272.37 217.101 271.482 215.769 270.772C206.626 266.333 195.44 265.534 185.32 269.618C168.986 276.187 161.44 293.498 168.098 308.944C172.004 318.088 179.994 324.746 189.315 327.764C190.824 328.297 191.002 327.054 189.848 326.344C184.255 322.793 175.2 315.868 172.626 309.654C166.412 294.829 173.602 278.229 189.226 271.748C196.328 268.908 208.579 270.328 215.769 271.926Z" fill="#111111"/>
<path d="M185.764 282.845C186.208 283.467 181.592 287.816 180.704 294.652C179.55 301.488 182.746 306.991 182.125 307.435C181.592 308.145 176.088 302.464 177.42 294.119C178.485 285.775 185.498 281.958 185.764 282.845Z" fill="#111111"/>
<path d="M158.511 323.059C157.889 323.592 153.273 319.242 146.438 318.798C139.602 318.088 134.276 321.727 133.743 321.106C132.944 320.662 138.271 314.714 146.704 315.425C155.049 316.046 159.31 322.704 158.511 323.059Z" fill="#111111"/>
<path d="M162.062 201.707C161.44 202.239 157.534 197.357 151.409 196.824C145.284 196.025 140.312 200.02 139.869 199.31C139.158 198.777 144.307 192.208 151.853 193.007C159.399 193.806 162.861 201.351 162.062 201.707Z" fill="#111111"/>
<path d="M147.858 229.404L156.558 222.48C156.824 218.574 156.647 214.667 155.759 210.85C155.315 209.164 154.782 207.565 153.628 206.234C151.764 204.015 149.367 204.015 146.438 206.323C143.686 208.453 142.265 211.116 141.023 213.78C136.939 222.834 136.051 231.712 135.874 240.589C135.963 243.963 136.406 247.247 137.56 250.265C138.182 251.952 139.158 253.639 141.822 253.55C144.307 253.461 145.905 251.686 147.148 249.999C150.965 245.117 152.829 239.968 154.25 234.73L147.858 229.404Z" fill="#111111"/>
<path d="M210.709 211.027C210.088 211.56 206.626 206.323 200.5 205.346C194.464 204.103 189.138 207.654 188.782 206.944C188.161 206.412 193.931 200.197 201.299 201.618C208.845 203.038 211.597 210.761 210.709 211.027Z" fill="#111111"/>
<path d="M193.931 237.571L203.253 231.357C203.874 227.451 204.051 223.545 203.519 219.728C203.252 218.041 202.809 216.355 201.832 214.934C200.145 212.626 197.837 212.449 194.641 214.49C191.712 216.355 190.025 218.929 188.516 221.503C183.634 230.203 181.858 238.992 180.882 247.78C180.615 251.154 180.793 254.438 181.681 257.545C182.213 259.321 182.923 261.096 185.587 261.185C188.072 261.273 189.848 259.587 191.268 258.078C195.529 253.55 197.926 248.579 199.79 243.43L193.931 237.571Z" fill="#111111"/>
<g opacity="0.2">
<path d="M174.49 34.0144C181.325 24.6933 183.456 12.6202 177.331 0.547063C176.887 -0.42944 175.289 0.0144251 175.378 0.990928C176.621 13.064 172.892 17.6803 165.613 31.4401C157.889 47.4192 169.696 57.0067 176.887 61.0015C177.863 61.5342 178.929 60.4689 178.218 59.6699C172.714 53.012 168.098 42.7142 174.49 34.0144Z" fill="url(#paint0_linear_36_488)"/>
<path d="M182.036 58.6047C181.059 57.6282 189.315 50.2599 190.114 39.1633C191.357 28.1555 184.521 19.6333 185.675 18.8344C186.563 17.5916 196.949 26.1137 195.618 39.6072C194.464 53.1006 182.657 59.9363 182.036 58.6047Z" fill="url(#paint1_linear_36_488)"/>
</g>
<path d="M167.171 266.142C172.196 262.301 173.615 255.714 170.339 251.429C167.064 247.145 160.336 246.785 155.311 250.626C150.286 254.467 148.867 261.054 152.143 265.339C155.418 269.623 162.146 269.983 167.171 266.142Z" fill="white"/>
<path d="M157.712 270.772C157.801 270.772 157.89 270.772 157.89 270.772C162.772 271.393 167.477 266.777 167.122 266.244C166.767 265.712 162.772 268.641 158.6 268.109C156.114 267.754 154.072 266.511 152.829 264.38C151.675 262.338 151.409 259.853 152.119 257.278C152.829 254.704 154.427 252.485 156.647 250.887C161.085 247.691 167.122 247.868 169.785 252.041C170.14 252.573 170.85 253.816 171.117 253.55C171.472 253.284 171.028 251.863 170.673 251.242C167.299 246.004 160.997 244.672 155.404 248.756C152.563 250.798 150.521 253.727 149.634 256.923C148.746 260.208 149.012 263.404 150.521 265.978C152.119 268.641 154.694 270.328 157.712 270.772Z" fill="#111111"/>
<path d="M162.065 265.64C163.357 265.349 164.246 264.415 164.052 263.554C163.858 262.693 162.654 262.231 161.363 262.522C160.071 262.813 159.182 263.746 159.375 264.607C159.569 265.468 160.774 265.931 162.065 265.64Z" fill="#111111"/>
<defs>
<linearGradient id="paint0_linear_36_488" x1="172.018" y1="0" x2="172.018" y2="61.1449" gradientUnits="userSpaceOnUse">
<stop stop-color="white"/>
<stop offset="1" stop-color="white" stop-opacity="0.73"/>
</linearGradient>
<linearGradient id="paint1_linear_36_488" x1="188.846" y1="18.7145" x2="188.846" y2="58.7684" gradientUnits="userSpaceOnUse">
<stop stop-color="white"/>
<stop offset="1" stop-color="white" stop-opacity="0.73"/>
</linearGradient>
</defs>
</svg>
